<mxfile host="app.diagrams.net" agent="Mozilla/5.0 (Windows NT 10.0; Win64; x64; rv:137.0) Gecko/20100101 Firefox/137.0" version="26.2.9">
  <diagram name="PÃ¡gina-1" id="dQMXUz5lIMVxk-jr8ZC0">
    <mxGraphModel dx="1556" dy="823" grid="1" gridSize="10" guides="1" tooltips="1" connect="1" arrows="1" fold="1" page="1" pageScale="1" pageWidth="827" pageHeight="1169" math="0" shadow="0">
      <root>
        <mxCell id="0" />
        <mxCell id="1" parent="0" />
        <mxCell id="OSYm1oX0l2wLbFWXeD9Y-1" value="AWS Cloud" style="points=[[0,0],[0.25,0],[0.5,0],[0.75,0],[1,0],[1,0.25],[1,0.5],[1,0.75],[1,1],[0.75,1],[0.5,1],[0.25,1],[0,1],[0,0.75],[0,0.5],[0,0.25]];outlineConnect=0;gradientColor=none;html=1;whiteSpace=wrap;fontSize=12;fontStyle=0;container=1;pointerEvents=0;collapsible=0;recursiveResize=0;shape=mxgraph.aws4.group;grIcon=mxgraph.aws4.group_aws_cloud_alt;strokeColor=#232F3E;fillColor=none;verticalAlign=top;align=left;spacingLeft=30;fontColor=#232F3E;dashed=0;" vertex="1" parent="1">
          <mxGeometry x="20" y="200" width="787" height="560" as="geometry" />
        </mxCell>
        <mxCell id="OSYm1oX0l2wLbFWXeD9Y-3" value="N. Virginia (us-east-1) Region" style="points=[[0,0],[0.25,0],[0.5,0],[0.75,0],[1,0],[1,0.25],[1,0.5],[1,0.75],[1,1],[0.75,1],[0.5,1],[0.25,1],[0,1],[0,0.75],[0,0.5],[0,0.25]];outlineConnect=0;gradientColor=none;html=1;whiteSpace=wrap;fontSize=12;fontStyle=0;container=1;pointerEvents=0;collapsible=0;recursiveResize=0;shape=mxgraph.aws4.group;grIcon=mxgraph.aws4.group_region;strokeColor=#00A4A6;fillColor=none;verticalAlign=top;align=left;spacingLeft=30;fontColor=#147EBA;dashed=1;" vertex="1" parent="OSYm1oX0l2wLbFWXeD9Y-1">
          <mxGeometry x="10" y="30" width="760" height="490" as="geometry" />
        </mxCell>
        <mxCell id="OSYm1oX0l2wLbFWXeD9Y-15" value="" style="sketch=0;points=[[0,0,0],[0.25,0,0],[0.5,0,0],[0.75,0,0],[1,0,0],[0,1,0],[0.25,1,0],[0.5,1,0],[0.75,1,0],[1,1,0],[0,0.25,0],[0,0.5,0],[0,0.75,0],[1,0.25,0],[1,0.5,0],[1,0.75,0]];outlineConnect=0;fontColor=#232F3E;fillColor=#E7157B;strokeColor=#ffffff;dashed=0;verticalLabelPosition=bottom;verticalAlign=top;align=center;html=1;fontSize=12;fontStyle=0;aspect=fixed;shape=mxgraph.aws4.resourceIcon;resIcon=mxgraph.aws4.api_gateway;" vertex="1" parent="OSYm1oX0l2wLbFWXeD9Y-3">
          <mxGeometry x="368.5" y="50" width="40" height="40" as="geometry" />
        </mxCell>
        <mxCell id="OSYm1oX0l2wLbFWXeD9Y-16" value="Amazon API Gateway" style="text;html=1;align=center;verticalAlign=middle;whiteSpace=wrap;rounded=0;" vertex="1" parent="OSYm1oX0l2wLbFWXeD9Y-3">
          <mxGeometry x="350.5" y="90" width="76" height="30" as="geometry" />
        </mxCell>
        <mxCell id="OSYm1oX0l2wLbFWXeD9Y-25" value="" style="aspect=fixed;sketch=0;html=1;dashed=0;whitespace=wrap;verticalLabelPosition=bottom;verticalAlign=top;fillColor=#2875E2;strokeColor=#ffffff;points=[[0.005,0.63,0],[0.1,0.2,0],[0.9,0.2,0],[0.5,0,0],[0.995,0.63,0],[0.72,0.99,0],[0.5,1,0],[0.28,0.99,0]];shape=mxgraph.kubernetes.icon2;kubernetesLabel=1;prIcon=pod" vertex="1" parent="OSYm1oX0l2wLbFWXeD9Y-3">
          <mxGeometry x="240" y="220" width="35" height="33.6" as="geometry" />
        </mxCell>
        <mxCell id="OSYm1oX0l2wLbFWXeD9Y-26" value="Management Microservice" style="text;html=1;align=center;verticalAlign=middle;whiteSpace=wrap;rounded=0;" vertex="1" parent="OSYm1oX0l2wLbFWXeD9Y-3">
          <mxGeometry x="263.5" y="220.00000000000003" width="100" height="30" as="geometry" />
        </mxCell>
        <mxCell id="OSYm1oX0l2wLbFWXeD9Y-27" value="" style="aspect=fixed;sketch=0;html=1;dashed=0;whitespace=wrap;verticalLabelPosition=bottom;verticalAlign=top;fillColor=#2875E2;strokeColor=#ffffff;points=[[0.005,0.63,0],[0.1,0.2,0],[0.9,0.2,0],[0.5,0,0],[0.995,0.63,0],[0.72,0.99,0],[0.5,1,0],[0.28,0.99,0]];shape=mxgraph.kubernetes.icon2;kubernetesLabel=1;prIcon=pod" vertex="1" parent="OSYm1oX0l2wLbFWXeD9Y-3">
          <mxGeometry x="162.5" y="327" width="35" height="33.6" as="geometry" />
        </mxCell>
        <mxCell id="OSYm1oX0l2wLbFWXeD9Y-28" value="NewOrder Microservice" style="text;html=1;align=center;verticalAlign=middle;whiteSpace=wrap;rounded=0;" vertex="1" parent="OSYm1oX0l2wLbFWXeD9Y-3">
          <mxGeometry x="130" y="361.6" width="100" height="30" as="geometry" />
        </mxCell>
        <mxCell id="OSYm1oX0l2wLbFWXeD9Y-30" value="" style="aspect=fixed;sketch=0;html=1;dashed=0;whitespace=wrap;verticalLabelPosition=bottom;verticalAlign=top;fillColor=#2875E2;strokeColor=#ffffff;points=[[0.005,0.63,0],[0.1,0.2,0],[0.9,0.2,0],[0.5,0,0],[0.995,0.63,0],[0.72,0.99,0],[0.5,1,0],[0.28,0.99,0]];shape=mxgraph.kubernetes.icon2;kubernetesLabel=1;prIcon=pod" vertex="1" parent="OSYm1oX0l2wLbFWXeD9Y-3">
          <mxGeometry x="500" y="221.8" width="35" height="33.6" as="geometry" />
        </mxCell>
        <mxCell id="OSYm1oX0l2wLbFWXeD9Y-32" value="" style="aspect=fixed;sketch=0;html=1;dashed=0;whitespace=wrap;verticalLabelPosition=bottom;verticalAlign=top;fillColor=#2875E2;strokeColor=#ffffff;points=[[0.005,0.63,0],[0.1,0.2,0],[0.9,0.2,0],[0.5,0,0],[0.995,0.63,0],[0.72,0.99,0],[0.5,1,0],[0.28,0.99,0]];shape=mxgraph.kubernetes.icon2;kubernetesLabel=1;prIcon=pod" vertex="1" parent="OSYm1oX0l2wLbFWXeD9Y-3">
          <mxGeometry x="560" y="328" width="35" height="33.6" as="geometry" />
        </mxCell>
        <mxCell id="OSYm1oX0l2wLbFWXeD9Y-33" value="Delivery Microservice" style="text;html=1;align=center;verticalAlign=middle;whiteSpace=wrap;rounded=0;" vertex="1" parent="OSYm1oX0l2wLbFWXeD9Y-3">
          <mxGeometry x="527.5" y="360.6" width="100" height="30" as="geometry" />
        </mxCell>
        <mxCell id="OSYm1oX0l2wLbFWXeD9Y-38" style="edgeStyle=orthogonalEdgeStyle;rounded=0;orthogonalLoop=1;jettySize=auto;html=1;exitX=0;exitY=0.75;exitDx=0;exitDy=0;exitPerimeter=0;entryX=0.5;entryY=0;entryDx=0;entryDy=0;entryPerimeter=0;strokeColor=#E7157B;" edge="1" parent="OSYm1oX0l2wLbFWXeD9Y-3" source="OSYm1oX0l2wLbFWXeD9Y-15" target="OSYm1oX0l2wLbFWXeD9Y-25">
          <mxGeometry relative="1" as="geometry" />
        </mxCell>
        <mxCell id="OSYm1oX0l2wLbFWXeD9Y-39" style="edgeStyle=orthogonalEdgeStyle;rounded=0;orthogonalLoop=1;jettySize=auto;html=1;exitX=1;exitY=0.75;exitDx=0;exitDy=0;exitPerimeter=0;entryX=0.5;entryY=0;entryDx=0;entryDy=0;entryPerimeter=0;strokeColor=#E7157B;" edge="1" parent="OSYm1oX0l2wLbFWXeD9Y-3" source="OSYm1oX0l2wLbFWXeD9Y-15" target="OSYm1oX0l2wLbFWXeD9Y-30">
          <mxGeometry relative="1" as="geometry" />
        </mxCell>
        <mxCell id="OSYm1oX0l2wLbFWXeD9Y-40" style="edgeStyle=orthogonalEdgeStyle;rounded=0;orthogonalLoop=1;jettySize=auto;html=1;exitX=0;exitY=0.25;exitDx=0;exitDy=0;exitPerimeter=0;entryX=0.5;entryY=0;entryDx=0;entryDy=0;entryPerimeter=0;strokeColor=#E7157B;" edge="1" parent="OSYm1oX0l2wLbFWXeD9Y-3" source="OSYm1oX0l2wLbFWXeD9Y-15" target="OSYm1oX0l2wLbFWXeD9Y-27">
          <mxGeometry relative="1" as="geometry">
            <Array as="points">
              <mxPoint x="180" y="60" />
            </Array>
          </mxGeometry>
        </mxCell>
        <mxCell id="OSYm1oX0l2wLbFWXeD9Y-41" style="edgeStyle=orthogonalEdgeStyle;rounded=0;orthogonalLoop=1;jettySize=auto;html=1;exitX=1;exitY=0.25;exitDx=0;exitDy=0;exitPerimeter=0;entryX=0.5;entryY=0;entryDx=0;entryDy=0;entryPerimeter=0;strokeColor=#E7157B;" edge="1" parent="OSYm1oX0l2wLbFWXeD9Y-3" source="OSYm1oX0l2wLbFWXeD9Y-15" target="OSYm1oX0l2wLbFWXeD9Y-32">
          <mxGeometry relative="1" as="geometry">
            <Array as="points">
              <mxPoint x="578" y="60" />
            </Array>
          </mxGeometry>
        </mxCell>
        <mxCell id="OSYm1oX0l2wLbFWXeD9Y-43" value="" style="sketch=0;points=[[0,0,0],[0.25,0,0],[0.5,0,0],[0.75,0,0],[1,0,0],[0,1,0],[0.25,1,0],[0.5,1,0],[0.75,1,0],[1,1,0],[0,0.25,0],[0,0.5,0],[0,0.75,0],[1,0.25,0],[1,0.5,0],[1,0.75,0]];outlineConnect=0;fontColor=#232F3E;fillColor=#E7157B;strokeColor=#ffffff;dashed=0;verticalLabelPosition=bottom;verticalAlign=top;align=center;html=1;fontSize=12;fontStyle=0;aspect=fixed;shape=mxgraph.aws4.resourceIcon;resIcon=mxgraph.aws4.sqs;" vertex="1" parent="OSYm1oX0l2wLbFWXeD9Y-3">
          <mxGeometry x="368.5" y="328.8" width="40" height="40" as="geometry" />
        </mxCell>
        <mxCell id="OSYm1oX0l2wLbFWXeD9Y-44" style="edgeStyle=orthogonalEdgeStyle;rounded=0;orthogonalLoop=1;jettySize=auto;html=1;exitX=0.995;exitY=0.63;exitDx=0;exitDy=0;exitPerimeter=0;entryX=0;entryY=0.5;entryDx=0;entryDy=0;entryPerimeter=0;strokeColor=#ED7100;startArrow=classic;startFill=1;" edge="1" parent="OSYm1oX0l2wLbFWXeD9Y-3" source="OSYm1oX0l2wLbFWXeD9Y-27" target="OSYm1oX0l2wLbFWXeD9Y-43">
          <mxGeometry relative="1" as="geometry" />
        </mxCell>
        <mxCell id="OSYm1oX0l2wLbFWXeD9Y-45" style="edgeStyle=orthogonalEdgeStyle;rounded=0;orthogonalLoop=1;jettySize=auto;html=1;exitX=0.005;exitY=0.63;exitDx=0;exitDy=0;exitPerimeter=0;entryX=1;entryY=0.5;entryDx=0;entryDy=0;entryPerimeter=0;strokeColor=#ED7100;startArrow=classic;startFill=1;" edge="1" parent="OSYm1oX0l2wLbFWXeD9Y-3" source="OSYm1oX0l2wLbFWXeD9Y-32" target="OSYm1oX0l2wLbFWXeD9Y-43">
          <mxGeometry relative="1" as="geometry" />
        </mxCell>
        <mxCell id="OSYm1oX0l2wLbFWXeD9Y-46" value="External calls via&lt;br&gt;HTTP APIs" style="text;html=1;align=center;verticalAlign=middle;whiteSpace=wrap;rounded=0;fontColor=#E7157B;" vertex="1" parent="OSYm1oX0l2wLbFWXeD9Y-3">
          <mxGeometry x="580" y="60" width="100" height="30" as="geometry" />
        </mxCell>
        <mxCell id="OSYm1oX0l2wLbFWXeD9Y-47" style="edgeStyle=orthogonalEdgeStyle;rounded=0;orthogonalLoop=1;jettySize=auto;html=1;exitX=0.5;exitY=1;exitDx=0;exitDy=0;exitPerimeter=0;entryX=0.25;entryY=0;entryDx=0;entryDy=0;entryPerimeter=0;strokeColor=#ED7100;startArrow=classic;startFill=1;" edge="1" parent="OSYm1oX0l2wLbFWXeD9Y-3" source="OSYm1oX0l2wLbFWXeD9Y-25" target="OSYm1oX0l2wLbFWXeD9Y-43">
          <mxGeometry relative="1" as="geometry" />
        </mxCell>
        <mxCell id="OSYm1oX0l2wLbFWXeD9Y-48" style="edgeStyle=orthogonalEdgeStyle;rounded=0;orthogonalLoop=1;jettySize=auto;html=1;exitX=0.5;exitY=1;exitDx=0;exitDy=0;exitPerimeter=0;entryX=0.75;entryY=0;entryDx=0;entryDy=0;entryPerimeter=0;strokeColor=#ED7100;startArrow=classic;startFill=1;" edge="1" parent="OSYm1oX0l2wLbFWXeD9Y-3" source="OSYm1oX0l2wLbFWXeD9Y-30" target="OSYm1oX0l2wLbFWXeD9Y-43">
          <mxGeometry relative="1" as="geometry" />
        </mxCell>
        <mxCell id="OSYm1oX0l2wLbFWXeD9Y-49" value="Inter-microservice integration via message queues" style="text;html=1;align=center;verticalAlign=middle;whiteSpace=wrap;rounded=0;fontColor=#ED7100;" vertex="1" parent="OSYm1oX0l2wLbFWXeD9Y-3">
          <mxGeometry x="304.63" y="395.8" width="167.75" height="30" as="geometry" />
        </mxCell>
        <mxCell id="OSYm1oX0l2wLbFWXeD9Y-50" value="Amazon SQS" style="text;html=1;align=center;verticalAlign=middle;whiteSpace=wrap;rounded=0;" vertex="1" parent="OSYm1oX0l2wLbFWXeD9Y-3">
          <mxGeometry x="350.5" y="368.79999999999995" width="76" height="30" as="geometry" />
        </mxCell>
        <mxCell id="OSYm1oX0l2wLbFWXeD9Y-51" value="API Routes:&lt;br&gt;iam/*&lt;br&gt;products/*" style="text;html=1;align=left;verticalAlign=middle;whiteSpace=wrap;rounded=0;fontColor=#E7157B;" vertex="1" parent="OSYm1oX0l2wLbFWXeD9Y-3">
          <mxGeometry x="277" y="163" width="100" height="53" as="geometry" />
        </mxCell>
        <mxCell id="OSYm1oX0l2wLbFWXeD9Y-52" value="API Routes:&lt;br&gt;basket/*&lt;br&gt;checkout/*&lt;br&gt;order/*" style="text;html=1;align=left;verticalAlign=middle;whiteSpace=wrap;rounded=0;fontColor=#E7157B;" vertex="1" parent="OSYm1oX0l2wLbFWXeD9Y-3">
          <mxGeometry x="146" y="398.79999999999995" width="100" height="53" as="geometry" />
        </mxCell>
        <mxCell id="OSYm1oX0l2wLbFWXeD9Y-53" value="API Routes:&lt;br&gt;cooking/*&lt;br&gt;pickup/*" style="text;html=1;align=right;verticalAlign=middle;whiteSpace=wrap;rounded=0;fontColor=#E7157B;" vertex="1" parent="OSYm1oX0l2wLbFWXeD9Y-3">
          <mxGeometry x="510" y="390.79999999999995" width="100" height="53" as="geometry" />
        </mxCell>
        <mxCell id="OSYm1oX0l2wLbFWXeD9Y-54" value="API Routes:&lt;br&gt;payments/*" style="text;html=1;align=right;verticalAlign=middle;whiteSpace=wrap;rounded=0;fontColor=#E7157B;" vertex="1" parent="OSYm1oX0l2wLbFWXeD9Y-3">
          <mxGeometry x="401" y="167.99999999999994" width="100" height="53" as="geometry" />
        </mxCell>
        <mxCell id="OSYm1oX0l2wLbFWXeD9Y-31" value="Payment Microservice" style="text;html=1;align=right;verticalAlign=middle;whiteSpace=wrap;rounded=0;" vertex="1" parent="1">
          <mxGeometry x="427.5" y="450" width="100" height="30" as="geometry" />
        </mxCell>
        <mxCell id="OSYm1oX0l2wLbFWXeD9Y-56" value="" style="edgeStyle=orthogonalEdgeStyle;rounded=0;orthogonalLoop=1;jettySize=auto;html=1;entryX=0.5;entryY=0;entryDx=0;entryDy=0;entryPerimeter=0;" edge="1" parent="1" source="OSYm1oX0l2wLbFWXeD9Y-55" target="OSYm1oX0l2wLbFWXeD9Y-15">
          <mxGeometry relative="1" as="geometry" />
        </mxCell>
        <mxCell id="OSYm1oX0l2wLbFWXeD9Y-55" value="" style="sketch=0;outlineConnect=0;fontColor=#232F3E;gradientColor=none;fillColor=#232F3D;strokeColor=none;dashed=0;verticalLabelPosition=bottom;verticalAlign=top;align=center;html=1;fontSize=12;fontStyle=0;aspect=fixed;pointerEvents=1;shape=mxgraph.aws4.user;" vertex="1" parent="1">
          <mxGeometry x="399" y="120" width="40" height="40" as="geometry" />
        </mxCell>
        <mxCell id="OSYm1oX0l2wLbFWXeD9Y-57" value="User" style="text;html=1;align=left;verticalAlign=middle;whiteSpace=wrap;rounded=0;" vertex="1" parent="1">
          <mxGeometry x="439" y="130" width="41" height="30" as="geometry" />
        </mxCell>
      </root>
    </mxGraphModel>
  </diagram>
</mxfile>
